<svg id="svg" version="1.1" xmlns="http://www.w3.org/2000/svg" xmlns:xlink="http://www.w3.org/1999/xlink" width="400" height="412.3076923076923" viewBox="0, 0, 400,412.3076923076923"><g id="svgg"><path id="path0" d="M130.785 83.272 C 128.542 85.740,127.204 87.783,126.576 89.699 C 126.197 90.855,125.578 92.250,125.200 92.800 C 124.822 93.350,124.206 94.735,123.832 95.877 C 123.457 97.020,122.781 98.425,122.329 98.999 C 121.877 99.574,121.115 101.159,120.636 102.522 C 120.157 103.885,119.297 105.810,118.727 106.800 C 118.156 107.790,117.463 109.320,117.186 110.200 C 116.910 111.080,116.260 112.309,115.742 112.931 C 115.224 113.553,114.799 114.273,114.798 114.531 C 114.792 115.677,113.903 118.032,112.938 119.453 C 112.361 120.304,111.566 121.936,111.172 123.081 C 110.779 124.225,110.014 125.935,109.473 126.881 C 108.931 127.826,108.267 129.320,107.995 130.200 C 107.724 131.080,107.151 132.185,106.723 132.656 C 106.294 133.126,105.605 134.598,105.192 135.927 C 103.868 140.181,101.661 142.628,98.240 143.637 C 97.594 143.827,85.707 143.808,71.440 143.594 C 57.338 143.383,42.290 143.163,38.000 143.105 L 30.200 143.000 27.200 144.493 C 21.893 147.133,20.125 153.245,23.631 156.832 C 24.274 157.489,24.800 158.197,24.800 158.404 C 24.800 158.610,25.385 159.075,26.100 159.435 C 26.815 159.796,27.850 160.491,28.400 160.980 C 28.950 161.469,30.233 162.175,31.251 162.549 C 32.269 162.923,33.439 163.601,33.850 164.055 C 34.261 164.510,35.699 165.381,37.045 165.991 C 38.390 166.601,39.622 167.313,39.782 167.572 C 39.943 167.831,41.024 168.463,42.186 168.977 C 43.347 169.490,44.430 170.126,44.593 170.388 C 44.755 170.651,45.723 171.223,46.744 171.660 C 47.765 172.097,48.984 172.813,49.453 173.253 C 49.923 173.692,51.386 174.562,52.705 175.186 C 54.024 175.810,55.232 176.528,55.389 176.782 C 55.545 177.035,56.647 177.673,57.837 178.199 C 59.027 178.725,60.000 179.321,60.000 179.523 C 60.000 179.725,61.058 180.366,62.352 180.946 C 63.645 181.527,64.929 182.273,65.204 182.605 C 65.480 182.938,66.535 183.576,67.548 184.024 C 68.561 184.472,69.752 185.170,70.195 185.574 C 70.638 185.979,72.030 186.791,73.289 187.379 C 75.505 188.414,78.400 191.174,78.400 192.251 C 78.400 193.340,76.363 199.132,75.823 199.581 C 75.509 199.842,74.865 201.258,74.393 202.728 C 73.921 204.197,73.178 205.783,72.743 206.252 C 72.307 206.721,71.691 207.966,71.374 209.018 C 71.058 210.071,70.375 211.668,69.857 212.566 C 69.339 213.465,68.582 215.100,68.174 216.200 C 67.767 217.300,66.941 218.984,66.339 219.943 C 65.737 220.902,65.126 222.252,64.982 222.943 C 64.837 223.634,64.218 225.010,63.605 226.000 C 62.993 226.990,62.264 228.520,61.987 229.400 C 61.709 230.280,60.988 231.900,60.384 233.000 C 59.780 234.100,59.065 235.720,58.794 236.600 C 58.523 237.480,57.860 238.790,57.322 239.511 C 56.784 240.231,55.984 242.121,55.546 243.711 C 55.107 245.300,54.580 246.771,54.374 246.980 C 52.734 248.646,55.087 254.397,58.140 256.186 C 60.426 257.526,66.448 259.561,69.637 260.073 L 72.274 260.495 75.631 258.833 C 77.477 257.918,79.440 256.747,79.994 256.230 C 80.547 255.713,81.410 255.166,81.911 255.015 C 82.412 254.863,83.638 254.033,84.635 253.170 C 85.633 252.306,86.691 251.600,86.986 251.600 C 87.282 251.600,88.278 250.970,89.200 250.200 C 90.122 249.430,91.007 248.800,91.168 248.800 C 91.329 248.800,92.503 247.990,93.778 247.000 C 95.053 246.010,96.424 245.200,96.825 245.200 C 97.227 245.200,97.790 244.876,98.077 244.479 C 98.608 243.747,105.309 239.200,105.857 239.200 C 106.022 239.200,106.673 238.705,107.304 238.100 C 107.935 237.496,109.216 236.551,110.151 236.000 C 113.033 234.303,115.749 232.456,116.907 231.405 C 117.516 230.852,118.264 230.400,118.569 230.400 C 118.874 230.400,119.906 229.744,120.862 228.942 C 121.818 228.140,123.154 227.251,123.832 226.965 C 124.509 226.680,125.319 226.137,125.632 225.758 C 128.328 222.495,134.292 222.697,139.000 226.211 C 139.660 226.704,140.606 227.230,141.102 227.381 C 141.598 227.532,142.520 228.089,143.150 228.620 C 143.781 229.150,145.110 229.933,146.104 230.359 C 147.098 230.785,148.035 231.333,148.186 231.577 C 148.336 231.821,149.693 232.641,151.200 233.400 C 152.707 234.159,154.051 234.959,154.187 235.179 C 154.322 235.398,155.274 235.949,156.302 236.404 C 157.330 236.859,158.511 237.539,158.927 237.915 C 159.708 238.622,162.201 240.079,166.918 242.584 C 168.413 243.378,169.729 244.272,169.844 244.569 C 169.958 244.867,170.535 245.207,171.126 245.326 C 171.717 245.445,172.830 245.998,173.600 246.556 C 174.370 247.114,176.080 248.140,177.400 248.837 C 178.720 249.533,179.890 250.236,180.000 250.399 C 180.110 250.562,181.177 251.188,182.370 251.790 C 183.564 252.392,184.824 253.203,185.170 253.591 C 185.517 253.980,186.610 254.606,187.600 254.981 C 188.590 255.357,189.760 255.987,190.200 256.382 C 192.202 258.179,196.849 258.938,200.164 258.010 C 205.157 256.612,207.220 249.765,204.338 244.157 C 203.785 243.081,203.011 241.030,202.619 239.600 C 202.227 238.170,201.553 236.501,201.120 235.892 C 200.688 235.283,200.010 233.202,199.614 231.268 C 199.218 229.334,198.535 227.042,198.096 226.176 C 197.658 225.309,196.998 223.268,196.631 221.640 C 196.264 220.011,195.519 217.922,194.977 216.997 C 194.434 216.071,193.703 214.346,193.352 213.163 C 193.001 211.980,192.296 210.517,191.786 209.911 C 191.277 209.305,190.641 207.772,190.373 206.505 C 190.106 205.237,189.450 203.542,188.915 202.738 C 188.381 201.934,187.670 200.228,187.336 198.948 C 187.002 197.667,186.312 195.895,185.804 195.010 C 183.173 190.428,183.867 186.243,187.578 184.304 C 188.769 183.682,189.982 182.833,190.272 182.418 C 190.563 182.003,191.308 181.552,191.927 181.416 C 192.546 181.280,193.904 180.465,194.944 179.606 C 195.984 178.746,197.233 177.919,197.718 177.768 C 198.203 177.617,199.276 176.888,200.101 176.147 C 200.927 175.406,201.771 174.800,201.977 174.800 C 202.183 174.800,203.183 174.080,204.200 173.200 C 205.217 172.320,206.294 171.600,206.594 171.600 C 206.893 171.600,207.647 171.172,208.269 170.650 C 209.880 169.297,214.467 166.191,216.055 165.380 C 216.795 165.001,217.545 164.444,217.722 164.141 C 217.900 163.838,218.890 163.158,219.922 162.630 C 226.313 159.360,228.566 152.836,224.951 148.068 C 222.481 144.811,223.280 144.903,194.622 144.591 C 180.355 144.435,169.410 144.157,168.822 143.934 C 167.230 143.331,166.081 142.045,165.342 140.040 C 164.969 139.028,164.441 137.930,164.167 137.600 C 163.894 137.270,163.259 135.560,162.756 133.800 C 162.254 132.040,161.509 130.139,161.102 129.576 C 160.695 129.012,160.113 127.363,159.809 125.910 C 159.505 124.458,158.979 122.732,158.640 122.076 C 158.300 121.421,157.907 120.156,157.764 119.267 C 157.622 118.377,157.274 117.561,156.992 117.452 C 156.060 117.094,151.501 111.268,147.832 105.744 C 147.081 104.613,146.268 103.566,146.026 103.416 C 145.783 103.266,145.152 102.290,144.624 101.247 C 144.095 100.203,143.378 99.114,143.031 98.826 C 142.684 98.538,141.295 96.659,139.945 94.651 C 138.594 92.643,137.165 90.640,136.769 90.200 C 136.374 89.760,135.253 87.878,134.279 86.018 C 132.285 82.208,131.974 81.964,130.785 83.272 M140.464 123.941 C 147.774 126.814,151.729 133.184,152.866 143.916 C 153.093 146.052,153.306 158.344,153.339 171.230 L 153.400 194.660 151.422 198.790 C 145.202 211.776,127.689 213.847,120.600 202.434 C 119.940 201.371,119.081 200.054,118.691 199.507 C 117.109 197.289,116.773 193.749,116.404 175.400 C 116.209 165.720,115.945 154.734,115.817 150.986 C 115.522 142.346,116.660 134.085,118.491 131.585 C 119.966 129.571,121.437 127.784,121.723 127.659 C 121.901 127.581,122.891 126.873,123.923 126.085 C 128.222 122.802,135.251 121.891,140.464 123.941 M273.484 284.082 C 271.059 286.547,268.578 288.932,267.971 289.382 C 267.364 289.832,265.548 291.208,263.934 292.440 C 262.320 293.672,260.396 294.991,259.657 295.372 C 258.598 295.919,253.943 299.150,253.256 299.815 C 253.177 299.891,253.492 300.487,253.956 301.139 C 254.420 301.790,254.800 302.514,254.800 302.747 C 254.800 304.676,271.056 321.158,275.510 323.744 C 275.941 323.995,276.813 324.543,277.447 324.963 C 281.975 327.959,283.405 328.800,283.974 328.800 C 284.331 328.800,285.915 329.419,287.495 330.176 C 292.749 332.694,305.598 333.232,309.395 331.093 C 309.876 330.822,311.245 330.089,312.436 329.465 C 320.471 325.255,318.745 313.494,308.378 301.816 C 304.884 297.880,297.257 291.305,293.918 289.351 C 293.497 289.104,292.757 288.561,292.276 288.143 C 291.794 287.726,289.780 286.417,287.800 285.235 C 285.820 284.052,283.147 282.301,281.860 281.342 C 278.609 278.921,278.539 278.944,273.484 284.082 " stroke="none" fill="#7515c6" fill-rule="evenodd"></path><path id="path1" d="M142.066 68.610 C 138.253 69.839,135.097 73.911,133.029 80.270 L 132.356 82.339 134.202 85.870 C 135.218 87.811,136.373 89.760,136.769 90.200 C 137.165 90.640,138.594 92.643,139.945 94.651 C 141.295 96.659,142.683 98.537,143.029 98.824 C 143.375 99.112,144.025 100.079,144.473 100.973 C 144.921 101.868,145.696 103.050,146.195 103.600 C 146.694 104.150,147.529 105.251,148.051 106.046 C 153.919 114.993,156.171 117.383,158.825 117.480 C 160.021 117.523,161.810 117.713,162.800 117.900 C 171.220 119.493,180.867 108.297,176.447 102.062 C 176.033 101.478,175.396 100.116,175.030 99.035 C 174.665 97.954,173.915 96.514,173.365 95.835 C 171.666 93.737,169.778 91.046,168.626 89.080 C 168.020 88.046,167.372 87.200,167.187 87.200 C 167.002 87.200,166.360 86.300,165.761 85.200 C 165.163 84.100,164.534 83.200,164.365 83.200 C 164.196 83.200,163.402 82.120,162.600 80.800 C 161.798 79.480,160.997 78.400,160.820 78.400 C 160.642 78.400,160.257 77.815,159.965 77.100 C 159.338 75.569,157.201 73.127,153.715 69.958 C 151.853 68.265,145.437 67.523,142.066 68.610 M240.600 69.756 C 240.160 70.096,239.507 70.380,239.149 70.387 C 238.791 70.394,238.283 70.658,238.021 70.974 C 237.759 71.290,237.017 71.664,236.372 71.806 C 235.728 71.948,235.200 72.240,235.200 72.455 C 235.200 72.671,234.577 73.511,233.816 74.323 C 233.055 75.136,231.480 77.136,230.316 78.769 C 229.152 80.401,227.539 82.419,226.732 83.252 C 225.925 84.085,225.136 85.180,224.979 85.684 C 224.822 86.188,224.133 87.258,223.447 88.063 C 222.000 89.761,220.175 92.293,218.921 94.343 C 218.437 95.134,217.766 95.982,217.429 96.228 C 214.441 98.413,215.244 107.880,218.726 111.528 C 225.529 118.653,233.859 117.084,240.921 107.346 C 241.538 106.496,242.978 104.458,244.121 102.817 C 245.264 101.177,246.686 99.327,247.281 98.706 C 247.876 98.085,248.764 96.862,249.255 95.988 C 249.746 95.115,250.290 94.400,250.463 94.400 C 250.637 94.400,251.081 93.815,251.450 93.100 C 251.819 92.385,252.703 91.035,253.416 90.101 C 254.128 89.167,254.837 87.727,254.991 86.901 C 255.145 86.075,255.414 85.220,255.588 85.000 C 257.109 83.080,255.363 76.205,252.689 73.583 C 249.306 70.266,242.661 68.162,240.600 69.756 M128.400 123.731 C 126.970 124.237,124.955 125.296,123.923 126.085 C 122.891 126.873,121.901 127.581,121.723 127.659 C 121.437 127.784,119.966 129.571,118.491 131.585 C 116.660 134.085,115.522 142.346,115.817 150.986 C 115.945 154.734,116.209 165.720,116.404 175.400 C 116.773 193.749,117.109 197.289,118.691 199.507 C 119.081 200.054,119.940 201.371,120.600 202.434 C 125.372 210.117,138.266 212.160,145.567 206.389 C 148.781 203.848,149.358 203.099,151.422 198.790 L 153.400 194.660 153.339 171.230 C 153.248 136.237,152.432 132.168,144.264 125.992 C 140.220 122.934,133.397 121.961,128.400 123.731 M248.800 131.572 C 243.330 132.667,239.541 136.028,236.891 142.135 L 235.128 146.200 235.327 158.800 C 235.692 181.891,236.487 195.074,237.861 200.805 C 238.767 204.584,243.966 209.860,247.553 210.639 C 248.129 210.764,249.122 211.031,249.760 211.233 C 258.308 213.938,268.917 207.553,270.270 198.890 C 270.934 194.633,270.729 152.973,270.005 145.258 C 269.126 135.886,259.213 129.488,248.800 131.572 M275.736 237.983 C 275.041 238.149,273.871 238.666,273.136 239.133 C 272.401 239.600,271.257 240.270,270.592 240.621 C 269.810 241.035,269.119 241.903,268.628 243.089 C 268.212 244.095,267.398 245.476,266.818 246.159 C 266.239 246.842,265.459 248.403,265.084 249.628 C 264.710 250.854,263.953 252.280,263.402 252.798 C 262.851 253.316,262.400 253.995,262.400 254.308 C 262.400 255.037,259.092 260.063,257.075 262.400 C 253.625 266.396,248.698 271.200,248.049 271.200 C 247.844 271.200,246.926 271.827,246.009 272.593 C 245.092 273.359,243.590 274.203,242.671 274.469 C 241.752 274.734,240.522 275.341,239.939 275.818 C 239.355 276.294,237.645 276.993,236.139 277.371 C 234.632 277.749,232.848 278.400,232.174 278.817 C 231.442 279.269,228.890 279.904,225.844 280.393 C 223.036 280.843,219.718 281.553,218.470 281.970 C 217.221 282.386,214.940 282.851,213.400 283.001 C 207.216 283.606,205.112 284.253,203.032 286.191 C 198.717 290.209,197.386 295.741,199.578 300.552 C 200.030 301.544,200.400 302.483,200.400 302.638 C 200.400 304.382,205.589 307.165,210.035 307.807 C 213.701 308.335,228.534 306.727,230.884 305.546 C 234.060 303.950,236.402 304.792,237.748 308.014 C 238.070 308.785,238.709 309.755,239.167 310.170 C 239.625 310.585,240.000 311.174,240.000 311.479 C 240.000 311.784,240.788 312.882,241.752 313.917 C 242.715 314.953,243.840 316.343,244.252 317.006 C 245.063 318.313,246.163 319.585,248.500 321.920 C 249.325 322.743,250.000 323.559,250.000 323.731 C 250.000 324.179,254.768 328.800,255.231 328.800 C 255.443 328.800,255.814 329.232,256.054 329.759 C 256.295 330.287,256.825 330.872,257.233 331.059 C 257.642 331.247,258.656 331.992,259.488 332.716 C 262.039 334.937,265.210 337.366,266.479 338.070 C 267.142 338.439,268.071 339.097,268.543 339.531 C 269.014 339.966,270.246 340.715,271.280 341.195 C 272.313 341.676,273.362 342.313,273.610 342.612 C 273.858 342.911,275.200 343.534,276.592 343.997 C 277.984 344.461,279.534 345.196,280.035 345.631 C 280.537 346.066,281.319 346.499,281.774 346.592 C 282.228 346.686,284.400 347.226,286.600 347.791 C 293.587 349.587,294.377 349.681,301.000 349.502 C 305.748 349.374,307.864 349.152,309.200 348.643 C 310.190 348.265,312.260 347.691,313.800 347.367 C 315.359 347.039,317.575 346.198,318.800 345.470 C 320.010 344.750,321.528 343.900,322.173 343.581 C 323.285 343.030,325.284 341.414,327.591 339.200 C 329.462 337.405,331.035 335.064,332.833 331.400 L 334.600 327.800 334.600 321.000 C 334.600 314.458,334.560 314.116,333.537 312.000 C 332.953 310.790,332.200 308.748,331.865 307.463 C 331.530 306.177,330.981 304.821,330.644 304.448 C 330.306 304.076,329.639 302.877,329.160 301.785 C 328.681 300.693,327.729 299.143,327.045 298.339 C 326.360 297.535,325.440 296.331,325.000 295.663 C 321.707 290.660,315.579 284.498,308.232 278.800 C 306.955 277.810,305.194 276.415,304.318 275.700 C 303.441 274.985,302.488 274.400,302.200 274.400 C 301.912 274.400,300.894 273.744,299.938 272.942 C 298.982 272.140,297.570 271.223,296.800 270.904 C 296.030 270.584,295.040 270.003,294.600 269.612 C 294.160 269.221,292.606 268.510,291.146 268.033 C 286.990 266.674,285.932 264.658,287.727 261.519 C 288.268 260.573,289.023 258.810,289.406 257.600 C 289.789 256.390,290.369 255.094,290.695 254.720 C 292.983 252.095,290.091 241.866,286.639 240.370 C 286.177 240.171,285.350 239.647,284.800 239.207 C 283.155 237.892,278.665 237.285,275.736 237.983 M281.860 281.342 C 283.147 282.301,285.820 284.052,287.800 285.235 C 289.780 286.417,291.794 287.726,292.276 288.143 C 292.757 288.561,293.497 289.104,293.918 289.351 C 297.257 291.305,304.884 297.880,308.378 301.816 C 318.745 313.494,320.471 325.255,312.436 329.465 C 311.245 330.089,309.876 330.822,309.395 331.093 C 305.598 333.232,292.749 332.694,287.495 330.176 C 285.915 329.419,284.331 328.800,283.974 328.800 C 283.405 328.800,281.975 327.959,277.447 324.963 C 276.813 324.543,275.941 323.995,275.510 323.744 C 271.056 321.158,254.800 304.676,254.800 302.747 C 254.800 302.514,254.420 301.790,253.956 301.139 C 253.492 300.487,253.177 299.891,253.256 299.815 C 253.943 299.150,258.598 295.919,259.657 295.372 C 260.396 294.991,262.320 293.672,263.934 292.440 C 265.548 291.208,267.364 289.832,267.971 289.382 C 268.578 288.932,271.059 286.547,273.484 284.082 C 278.539 278.944,278.609 278.921,281.860 281.342 " stroke="none" fill="#5d080a" fill-rule="evenodd"></path><path id="path2" d="M164.800 0.800 C 164.800 1.564,164.532 1.600,158.900 1.604 C 150.784 1.610,150.083 1.752,149.764 3.451 L 149.511 4.800 145.053 4.800 L 140.594 4.800 139.221 6.300 C 137.879 7.765,137.768 7.805,134.423 8.000 L 131.000 8.200 130.875 9.500 L 130.749 10.800 127.675 10.847 C 123.082 10.918,122.246 11.177,122.001 12.603 C 121.802 13.762,121.713 13.806,119.198 14.000 C 116.068 14.241,115.600 14.502,115.600 16.006 L 115.600 17.165 112.700 17.282 L 109.800 17.400 109.675 18.700 L 109.549 20.000 107.003 20.000 C 104.212 20.000,103.200 20.578,103.200 22.172 C 103.200 22.997,102.961 23.111,100.741 23.343 C 97.956 23.634,97.200 24.084,97.200 25.449 C 97.200 26.271,97.008 26.400,95.787 26.400 C 94.858 26.400,94.290 26.620,94.128 27.044 C 93.512 28.649,92.159 29.550,90.177 29.675 C 88.277 29.795,88.195 29.850,88.076 31.077 C 87.964 32.234,87.813 32.366,86.476 32.477 C 85.085 32.593,84.993 32.686,84.876 34.100 L 84.752 35.600 82.404 35.600 C 79.806 35.600,78.800 36.215,78.800 37.804 C 78.800 38.610,78.576 38.770,77.300 38.876 C 75.931 38.989,75.789 39.113,75.675 40.300 C 75.567 41.419,75.397 41.600,74.455 41.600 C 73.058 41.600,72.400 42.266,72.400 43.680 C 72.400 44.690,72.264 44.800,71.024 44.800 C 69.724 44.800,69.642 44.882,69.524 46.297 C 69.404 47.747,69.342 47.803,67.562 48.055 C 65.403 48.361,64.289 48.977,63.773 50.148 C 63.568 50.614,63.040 51.060,62.600 51.139 C 61.511 51.334,60.400 52.377,60.400 53.204 C 60.400 53.627,59.913 54.024,59.112 54.254 C 58.148 54.530,57.732 54.942,57.460 55.891 C 57.191 56.829,56.798 57.225,55.951 57.411 C 55.092 57.600,54.726 57.978,54.480 58.931 C 54.279 59.715,53.746 60.398,53.088 60.717 C 52.501 61.001,51.746 61.811,51.410 62.517 C 51.073 63.222,50.168 64.485,49.399 65.322 C 48.476 66.327,48.000 67.237,48.000 67.998 C 48.000 69.042,47.858 69.163,46.500 69.276 C 45.081 69.393,44.993 69.481,44.876 70.900 C 44.765 72.238,44.633 72.400,43.656 72.400 C 42.258 72.400,41.600 73.065,41.600 74.480 C 41.600 75.382,41.421 75.600,40.680 75.600 C 39.361 75.600,38.800 76.340,38.800 78.080 C 38.800 78.916,38.626 79.600,38.414 79.600 C 37.392 79.600,35.600 82.011,35.600 83.387 C 35.600 84.727,35.530 84.800,34.243 84.800 C 32.769 84.800,32.400 85.287,32.400 87.233 C 32.400 88.108,32.212 88.400,31.649 88.400 C 30.504 88.400,29.970 89.327,29.720 91.751 C 29.493 93.949,29.487 93.959,28.046 94.079 L 26.600 94.200 26.482 97.100 C 26.366 99.970,26.354 100.000,25.262 100.000 C 23.794 100.000,23.200 100.673,23.200 102.334 C 23.200 103.219,22.879 104.037,22.300 104.632 C 20.188 106.799,20.000 107.119,20.000 108.553 C 20.000 109.711,19.690 110.359,18.600 111.481 C 17.277 112.844,17.200 113.073,17.200 115.661 C 17.200 118.394,17.198 118.400,16.080 118.400 C 14.380 118.400,14.000 119.072,14.000 122.080 L 14.000 124.800 12.790 124.800 C 11.180 124.800,10.800 125.869,10.800 130.401 L 10.800 133.949 9.500 134.075 L 8.200 134.200 8.000 138.600 L 7.800 143.000 6.400 143.200 L 5.000 143.400 4.887 148.100 C 4.783 152.451,4.717 152.800,3.997 152.800 C 2.265 152.800,1.810 154.498,1.666 161.481 C 1.540 167.589,1.483 168.000,0.766 168.000 C 0.017 168.000,0.000 168.839,0.000 206.200 C 0.000 244.133,0.006 244.400,0.800 244.400 C 1.562 244.400,1.600 244.667,1.602 250.100 C 1.605 256.950,1.993 258.716,3.632 259.334 L 4.800 259.775 4.800 264.245 C 4.800 269.044,4.870 269.200,7.020 269.200 C 7.962 269.200,7.975 269.256,8.087 273.700 L 8.200 278.200 9.500 278.325 L 10.800 278.451 10.800 281.799 C 10.800 285.980,11.176 287.043,12.776 287.395 C 13.971 287.657,14.000 287.719,14.000 289.999 C 14.000 293.173,14.218 293.600,15.843 293.600 L 17.200 293.600 17.200 296.413 C 17.200 299.095,17.265 299.292,18.600 300.627 C 19.757 301.784,20.000 302.320,20.001 303.713 C 20.001 305.163,20.226 305.611,21.601 306.905 C 22.754 307.990,23.200 308.734,23.200 309.572 C 23.200 311.512,23.570 312.000,25.043 312.000 L 26.400 312.000 26.400 314.786 C 26.400 317.751,26.826 318.400,28.774 318.400 C 29.431 318.400,29.608 318.666,29.640 319.700 C 29.707 321.888,30.185 322.976,31.317 323.522 C 32.122 323.910,32.400 324.339,32.400 325.193 C 32.400 326.598,33.328 327.600,34.629 327.600 C 35.447 327.600,35.600 327.794,35.600 328.831 C 35.600 329.745,36.013 330.459,37.200 331.600 C 38.320 332.677,38.802 333.476,38.806 334.269 C 38.814 335.748,39.165 336.219,40.500 336.546 C 41.219 336.722,41.600 337.078,41.600 337.575 C 41.600 339.097,42.058 339.600,43.443 339.600 C 44.760 339.600,44.800 339.648,44.800 341.200 L 44.800 342.800 46.400 342.800 C 47.965 342.800,48.000 342.831,48.000 344.213 C 48.000 345.302,48.330 345.957,49.435 347.062 C 50.225 347.851,51.184 349.060,51.567 349.749 C 51.951 350.437,52.687 351.212,53.203 351.472 C 53.719 351.732,54.335 352.542,54.571 353.272 C 54.895 354.275,55.260 354.630,56.062 354.723 C 56.832 354.812,57.199 355.142,57.395 355.921 C 57.764 357.393,58.340 358.000,59.366 358.000 C 59.995 358.000,60.340 358.351,60.617 359.272 C 60.901 360.213,61.354 360.660,62.363 360.995 C 63.112 361.243,63.864 361.821,64.034 362.279 C 64.427 363.343,66.535 364.400,68.261 364.400 C 69.556 364.400,69.600 364.452,69.600 366.000 C 69.600 367.556,69.638 367.600,70.975 367.600 C 72.233 367.600,72.360 367.710,72.475 368.900 C 72.589 370.087,72.731 370.211,74.100 370.324 C 75.508 370.441,75.600 370.530,75.600 371.781 C 75.600 373.189,76.104 373.600,77.833 373.600 C 78.499 373.600,78.800 373.825,78.800 374.324 C 78.800 375.772,79.727 376.390,82.300 376.656 L 84.800 376.914 84.800 378.257 C 84.800 379.557,84.851 379.600,86.400 379.600 C 87.951 379.600,88.000 379.641,88.000 380.953 C 88.000 382.421,88.597 382.784,91.030 382.795 C 92.274 382.800,93.634 383.899,94.128 385.300 C 94.300 385.788,94.803 386.000,95.787 386.000 C 96.916 386.000,97.200 386.155,97.200 386.771 C 97.200 388.189,98.292 388.800,100.829 388.800 C 102.958 388.800,103.200 388.884,103.200 389.626 C 103.200 391.574,103.849 392.000,106.814 392.000 L 109.600 392.000 109.600 393.357 C 109.600 394.982,110.026 395.200,113.207 395.200 L 115.549 395.200 115.675 396.500 L 115.800 397.800 118.697 397.917 C 121.476 398.030,121.604 398.079,121.852 399.117 C 122.317 401.064,122.642 401.200,126.849 401.200 L 130.800 401.200 130.800 402.320 C 130.800 404.052,131.459 404.400,134.733 404.400 C 137.612 404.400,137.747 404.444,139.026 405.800 L 140.346 407.200 144.973 407.200 L 149.600 407.200 149.600 408.171 C 149.600 410.220,150.265 410.400,157.829 410.400 C 164.533 410.400,164.800 410.431,164.800 411.200 C 164.800 411.994,165.067 412.000,200.200 412.000 C 235.333 412.000,235.600 411.994,235.600 411.200 C 235.600 410.431,235.867 410.400,242.551 410.400 C 249.947 410.400,250.194 410.338,250.462 408.400 C 250.599 407.408,250.634 407.399,255.173 407.286 L 259.746 407.172 261.092 405.786 C 262.381 404.459,262.561 404.400,265.319 404.394 C 268.683 404.387,269.081 404.206,269.264 402.599 L 269.400 401.400 273.516 401.200 C 277.868 400.989,278.381 400.747,278.394 398.900 C 278.400 398.056,278.568 398.000,281.120 398.000 C 284.039 398.000,284.800 397.611,284.800 396.120 C 284.800 395.255,284.954 395.200,287.386 395.200 C 290.129 395.200,290.800 394.737,290.800 392.844 C 290.800 392.117,291.095 392.023,293.700 391.918 L 296.600 391.800 296.724 390.300 L 296.848 388.800 299.148 388.800 C 301.598 388.800,302.648 388.292,302.870 387.000 C 302.968 386.423,303.375 386.165,304.326 386.073 C 305.113 385.997,305.746 385.674,305.893 385.273 C 306.392 383.915,307.917 382.913,309.809 382.700 C 311.800 382.476,312.384 381.979,312.394 380.500 C 312.399 379.739,312.617 379.600,313.800 379.600 C 315.122 379.600,315.200 379.525,315.200 378.256 L 315.200 376.911 317.615 376.692 C 320.339 376.445,321.200 375.931,321.200 374.551 C 321.200 373.797,321.412 373.600,322.226 373.600 C 323.905 373.600,324.800 372.900,324.800 371.586 C 324.800 370.497,324.915 370.400,326.200 370.400 C 327.529 370.400,327.600 370.330,327.600 369.024 C 327.600 367.723,327.681 367.642,329.100 367.524 C 330.519 367.407,330.607 367.319,330.724 365.900 C 330.839 364.507,330.939 364.400,332.124 364.399 C 333.651 364.397,336.009 363.050,336.277 362.028 C 336.382 361.626,337.038 361.136,337.734 360.940 C 338.588 360.700,339.181 360.175,339.555 359.331 C 339.933 358.480,340.473 358.005,341.241 357.852 C 342.103 357.679,342.451 357.315,342.709 356.313 C 342.943 355.404,343.316 354.961,343.920 354.873 C 344.889 354.731,346.000 353.386,346.000 352.354 C 346.000 351.971,346.437 351.577,347.026 351.429 C 347.697 351.261,348.254 350.690,348.632 349.785 C 348.950 349.023,349.928 347.724,350.805 346.900 C 352.028 345.749,352.399 345.098,352.399 344.100 C 352.400 342.881,352.487 342.800,353.800 342.800 C 355.163 342.800,355.200 342.758,355.200 341.224 C 355.200 339.692,355.242 339.645,356.700 339.524 C 358.055 339.412,358.212 339.280,358.321 338.152 C 358.420 337.138,358.680 336.835,359.705 336.542 C 360.732 336.247,361.044 335.882,361.383 334.578 C 361.613 333.696,362.205 332.576,362.700 332.088 C 363.195 331.599,363.600 331.020,363.600 330.800 C 363.600 330.580,363.870 330.400,364.200 330.400 C 364.619 330.400,364.800 329.978,364.800 329.000 C 364.800 327.817,364.939 327.599,365.700 327.594 C 367.106 327.584,367.530 327.114,367.670 325.411 C 367.777 324.106,367.974 323.791,368.798 323.598 C 369.362 323.466,369.857 323.025,369.937 322.582 C 370.014 322.152,370.240 321.629,370.439 321.420 C 370.637 321.211,370.800 320.466,370.800 319.765 C 370.800 318.631,370.951 318.461,372.156 318.235 C 373.706 317.944,373.986 317.318,373.995 314.125 C 374.000 312.078,374.017 312.049,375.300 311.925 C 376.546 311.805,376.605 311.722,376.722 309.900 C 376.789 308.855,377.024 308.000,377.244 308.000 C 378.271 308.000,380.000 305.400,380.000 303.857 C 380.000 302.774,380.277 302.007,380.900 301.368 C 383.198 299.010,383.200 299.006,383.200 296.292 L 383.200 293.651 384.500 293.525 L 385.800 293.400 385.916 290.567 L 386.032 287.733 387.516 287.367 L 389.000 287.000 389.114 282.700 L 389.227 278.400 390.334 278.400 C 392.154 278.400,392.400 277.798,392.400 273.345 L 392.400 269.251 393.700 269.125 L 395.000 269.000 395.119 264.400 L 395.237 259.800 396.510 259.200 C 398.176 258.415,398.313 257.771,398.360 250.500 C 398.398 244.680,398.437 244.400,399.200 244.400 C 399.994 244.400,400.000 244.133,400.000 206.200 C 400.000 168.815,399.984 168.000,399.233 168.000 C 398.512 168.000,398.458 167.587,398.333 161.060 C 398.193 153.735,398.003 152.971,396.271 152.724 C 395.448 152.607,395.389 152.348,395.200 148.000 L 395.000 143.400 393.700 143.275 L 392.400 143.149 392.394 139.075 C 392.387 134.467,392.268 134.126,390.599 133.936 L 389.400 133.800 389.285 129.822 C 389.158 125.470,388.874 124.800,387.151 124.800 L 386.000 124.800 386.000 121.843 C 386.000 118.748,385.794 118.400,383.967 118.400 C 383.287 118.400,383.200 118.095,383.199 115.700 C 383.199 113.068,383.158 112.962,381.599 111.495 C 380.242 110.218,380.000 109.744,380.000 108.364 C 380.000 106.989,379.752 106.499,378.400 105.200 C 377.060 103.913,376.800 103.405,376.800 102.074 C 376.800 100.443,376.366 100.000,374.767 100.000 C 374.103 100.000,374.000 99.702,374.000 97.774 C 374.000 94.916,373.511 94.000,371.986 94.000 C 370.919 94.000,370.798 93.870,370.781 92.700 C 370.753 90.832,369.572 88.625,368.520 88.475 C 367.802 88.373,367.622 88.048,367.522 86.675 C 367.408 85.107,367.317 84.992,366.100 84.875 C 364.932 84.762,364.800 84.620,364.799 83.475 C 364.799 82.513,364.419 81.843,363.252 80.745 C 362.204 79.759,361.613 78.792,361.416 77.746 C 361.099 76.055,360.664 75.615,359.300 75.606 C 358.545 75.601,358.400 75.382,358.400 74.243 C 358.400 72.814,357.903 72.400,356.191 72.400 C 355.390 72.400,355.230 72.174,355.124 70.900 C 355.011 69.531,354.887 69.389,353.700 69.275 C 352.510 69.160,352.400 69.033,352.400 67.775 C 352.400 66.893,352.208 66.400,351.864 66.400 C 351.570 66.400,351.123 65.950,350.873 65.400 C 350.622 64.850,350.235 64.400,350.012 64.400 C 349.789 64.400,349.290 63.730,348.903 62.911 C 348.516 62.092,347.754 61.200,347.208 60.928 C 346.662 60.656,346.017 59.844,345.774 59.122 C 345.453 58.169,344.992 57.713,344.088 57.454 C 343.158 57.187,342.812 56.832,342.722 56.048 C 342.636 55.311,342.219 54.832,341.316 54.435 C 340.540 54.093,339.876 53.419,339.635 52.729 C 339.348 51.904,338.891 51.518,337.987 51.337 C 337.187 51.177,336.611 50.755,336.386 50.163 C 335.937 48.983,334.044 48.000,332.220 48.000 C 330.830 48.000,330.800 47.966,330.800 46.400 C 330.800 44.804,330.796 44.800,329.224 44.800 C 327.692 44.800,327.645 44.758,327.524 43.300 C 327.411 41.931,327.287 41.789,326.100 41.675 C 325.070 41.575,324.799 41.367,324.794 40.675 C 324.784 39.330,324.318 38.877,322.797 38.733 C 321.654 38.624,321.376 38.418,321.266 37.600 C 321.065 36.098,320.592 35.819,317.880 35.600 L 315.400 35.400 315.200 34.000 C 315.025 32.773,314.844 32.585,313.740 32.478 C 312.656 32.372,312.445 32.164,312.222 30.978 C 311.972 29.642,311.907 29.600,310.104 29.600 C 308.207 29.600,306.000 28.175,306.000 26.949 C 306.000 26.659,305.369 26.396,304.502 26.324 C 303.188 26.215,302.978 26.053,302.798 25.003 C 302.573 23.691,301.706 23.337,298.500 23.247 C 296.893 23.203,296.800 23.135,296.800 22.014 C 296.800 20.489,295.884 20.000,293.026 20.000 C 291.098 20.000,290.800 19.897,290.800 19.233 C 290.800 17.428,290.437 17.200,287.557 17.200 C 284.904 17.200,284.800 17.163,284.800 16.229 C 284.800 14.573,283.816 14.000,280.971 14.000 C 278.531 14.000,278.400 13.952,278.400 13.049 C 278.400 11.449,277.412 11.037,273.175 10.867 L 269.244 10.709 269.122 9.454 L 269.000 8.200 265.500 8.084 C 263.575 8.021,262.000 7.802,262.000 7.598 C 262.000 5.801,259.680 4.827,255.130 4.713 L 250.606 4.600 250.400 3.403 C 250.131 1.847,249.437 1.707,241.700 1.647 C 235.882 1.602,235.600 1.563,235.600 0.800 C 235.600 0.006,235.333 0.000,200.200 0.000 C 165.067 0.000,164.800 0.006,164.800 0.800 M150.359 64.579 C 152.516 65.694,154.978 67.497,156.484 69.063 C 159.091 71.775,160.800 73.884,160.800 74.388 C 160.800 74.658,161.303 75.356,161.917 75.940 C 162.532 76.523,163.471 77.720,164.004 78.600 C 164.538 79.480,165.565 80.979,166.287 81.931 C 167.009 82.882,167.600 83.917,167.600 84.231 C 167.600 84.544,167.773 84.800,167.984 84.800 C 168.617 84.800,170.000 86.497,170.000 87.272 C 170.000 87.669,170.367 88.220,170.817 88.497 C 171.266 88.773,172.104 89.810,172.680 90.800 C 173.255 91.790,174.218 93.170,174.821 93.866 C 175.423 94.562,176.128 95.777,176.389 96.566 C 176.649 97.355,177.024 98.000,177.222 98.000 C 179.595 98.000,180.981 109.049,179.197 113.750 C 176.999 119.542,168.705 123.742,163.261 121.821 C 160.922 120.996,160.462 123.278,162.415 126.021 C 162.825 126.597,163.526 128.432,163.973 130.098 C 164.419 131.765,165.128 133.730,165.548 134.464 C 166.283 135.748,166.873 137.438,167.355 139.634 C 167.742 141.397,169.706 141.551,195.063 141.795 C 222.736 142.062,223.298 142.140,226.939 146.239 C 231.521 151.398,229.116 160.362,222.200 163.903 C 221.320 164.354,220.164 165.190,219.630 165.761 C 219.097 166.332,218.330 166.800,217.927 166.800 C 217.523 166.800,216.609 167.359,215.896 168.041 C 215.183 168.724,213.880 169.648,213.000 170.095 C 212.120 170.542,210.809 171.423,210.086 172.054 C 209.363 172.684,208.510 173.200,208.189 173.200 C 207.869 173.200,207.130 173.735,206.548 174.388 C 205.965 175.042,204.695 175.879,203.726 176.250 C 202.756 176.620,201.785 177.255,201.568 177.660 C 201.351 178.066,200.414 178.781,199.487 179.251 C 198.559 179.720,197.665 180.335,197.500 180.616 C 197.335 180.898,196.345 181.535,195.300 182.032 C 194.255 182.529,192.724 183.535,191.899 184.268 C 191.073 185.001,190.173 185.605,189.899 185.610 C 189.186 185.624,186.000 188.719,186.000 189.397 C 186.000 189.709,186.429 190.597,186.954 191.370 C 187.479 192.143,188.225 194.086,188.612 195.688 C 188.999 197.290,189.618 199.050,189.988 199.600 C 190.855 200.890,191.500 202.611,191.834 204.529 C 191.980 205.369,192.522 206.559,193.039 207.173 C 194.182 208.532,194.605 209.613,194.973 212.123 C 195.137 213.234,195.504 214.142,195.843 214.272 C 196.696 214.599,197.466 216.293,197.949 218.905 C 198.181 220.164,198.735 221.691,199.179 222.297 C 199.634 222.919,200.323 225.087,200.759 227.271 C 201.198 229.468,201.887 231.629,202.351 232.271 C 202.802 232.892,203.552 234.810,204.019 236.534 C 204.485 238.258,205.227 240.279,205.667 241.025 C 207.611 244.318,208.278 252.694,206.844 255.800 C 204.694 260.459,198.004 262.899,193.685 260.600 C 192.652 260.050,191.571 259.600,191.283 259.600 C 190.543 259.600,188.356 258.448,187.347 257.527 C 186.877 257.099,185.392 256.227,184.047 255.591 C 182.701 254.955,181.600 254.260,181.600 254.048 C 181.600 253.836,180.955 253.449,180.166 253.189 C 179.377 252.928,178.162 252.220,177.466 251.615 C 176.770 251.010,175.520 250.293,174.690 250.023 C 173.859 249.752,172.649 249.085,172.000 248.539 C 171.352 247.993,169.736 247.005,168.411 246.342 C 167.085 245.680,166.000 244.986,166.000 244.800 C 166.000 244.614,165.355 244.249,164.566 243.989 C 163.777 243.728,162.537 242.994,161.811 242.356 C 161.084 241.718,159.707 240.920,158.751 240.583 C 157.794 240.245,156.559 239.559,156.006 239.058 C 155.453 238.556,154.234 237.816,153.298 237.411 C 152.361 237.007,151.379 236.415,151.114 236.096 C 150.849 235.777,149.725 235.107,148.616 234.607 C 147.507 234.107,146.238 233.349,145.795 232.922 C 145.352 232.495,143.957 231.673,142.695 231.095 C 141.433 230.517,140.400 229.887,140.400 229.696 C 140.400 229.504,139.435 228.947,138.255 228.458 C 137.076 227.969,135.694 227.126,135.186 226.585 C 133.738 225.044,130.133 225.157,128.260 226.801 C 127.507 227.462,126.241 228.274,125.446 228.607 C 124.651 228.939,124.000 229.385,124.000 229.597 C 124.000 229.810,123.252 230.365,122.338 230.832 C 121.424 231.298,119.787 232.382,118.702 233.240 C 117.616 234.098,116.473 234.800,116.161 234.800 C 115.850 234.800,115.191 235.266,114.697 235.835 C 114.204 236.404,113.170 237.133,112.400 237.455 C 111.630 237.777,110.460 238.550,109.800 239.173 C 109.140 239.796,107.953 240.511,107.162 240.763 C 106.371 241.015,105.500 241.639,105.227 242.149 C 104.954 242.659,103.986 243.405,103.075 243.807 C 102.164 244.209,101.054 244.889,100.609 245.317 C 100.164 245.746,99.170 246.392,98.400 246.754 C 97.630 247.116,96.429 247.994,95.731 248.706 C 95.033 249.418,94.194 250.000,93.867 250.000 C 93.540 250.000,92.370 250.713,91.267 251.585 C 90.165 252.456,88.805 253.284,88.246 253.424 C 87.686 253.565,87.131 253.988,87.011 254.364 C 86.892 254.741,86.079 255.364,85.204 255.750 C 84.329 256.136,82.886 257.059,81.998 257.802 C 81.109 258.544,79.981 259.277,79.491 259.430 C 79.001 259.583,78.029 260.206,77.332 260.814 C 74.086 263.644,67.745 263.377,58.200 260.006 C 51.538 257.653,49.151 249.136,53.379 242.800 C 53.893 242.030,54.539 240.421,54.815 239.224 C 55.091 238.027,55.726 236.638,56.226 236.138 C 56.726 235.638,57.435 234.187,57.802 232.914 C 58.169 231.641,58.791 230.240,59.184 229.800 C 59.577 229.360,60.290 227.806,60.767 226.346 C 61.244 224.887,61.964 223.395,62.367 223.030 C 62.769 222.666,63.496 221.108,63.982 219.569 C 64.468 218.030,65.189 216.462,65.584 216.085 C 65.979 215.708,66.596 214.377,66.955 213.127 C 67.313 211.876,68.044 210.334,68.577 209.700 C 69.111 209.065,69.664 208.018,69.807 207.373 C 70.245 205.381,70.897 203.836,71.661 202.979 C 72.063 202.527,72.770 200.997,73.232 199.579 C 73.693 198.160,74.396 196.640,74.792 196.200 C 76.271 194.559,76.278 191.200,74.802 191.200 C 74.393 191.200,73.720 190.770,73.306 190.244 C 72.893 189.719,71.626 188.889,70.490 188.401 C 69.354 187.912,68.202 187.243,67.929 186.914 C 67.655 186.585,66.498 185.902,65.355 185.397 C 64.213 184.892,62.945 184.146,62.536 183.739 C 62.128 183.333,60.985 182.656,59.997 182.235 C 59.009 181.814,57.916 181.157,57.569 180.776 C 57.222 180.394,56.024 179.689,54.908 179.208 C 53.792 178.728,52.470 177.900,51.970 177.368 C 51.470 176.835,50.759 176.400,50.390 176.400 C 50.021 176.400,48.485 175.590,46.978 174.600 C 45.471 173.610,44.066 172.800,43.857 172.800 C 43.647 172.800,42.919 172.376,42.238 171.858 C 41.557 171.339,40.190 170.510,39.200 170.014 C 38.210 169.518,36.950 168.704,36.400 168.204 C 35.850 167.705,34.710 167.076,33.866 166.806 C 33.022 166.536,31.752 165.807,31.044 165.185 C 30.336 164.563,29.289 163.937,28.718 163.794 C 28.146 163.650,27.346 163.227,26.940 162.854 C 26.533 162.480,25.570 161.788,24.800 161.315 C 18.406 157.391,17.478 147.076,23.200 143.541 C 27.747 140.732,23.499 141.000,63.437 141.000 C 100.828 141.000,100.800 141.001,100.800 139.459 C 100.800 139.215,101.438 137.981,102.219 136.717 C 102.999 135.453,103.893 133.557,104.206 132.504 C 104.519 131.451,105.230 129.972,105.787 129.217 C 106.344 128.462,106.800 127.598,106.800 127.296 C 106.800 126.349,108.449 122.867,108.998 122.656 C 109.286 122.546,109.722 121.521,109.967 120.379 C 110.413 118.299,111.515 116.000,112.066 116.000 C 112.227 116.000,112.668 114.898,113.045 113.552 C 113.423 112.206,114.115 110.631,114.584 110.052 C 115.052 109.473,115.760 107.920,116.158 106.600 C 116.556 105.280,117.293 103.750,117.796 103.200 C 118.300 102.650,119.015 101.135,119.386 99.833 C 119.757 98.531,120.481 96.911,120.994 96.233 C 121.507 95.555,122.123 94.260,122.364 93.355 C 122.604 92.450,123.243 91.059,123.783 90.263 C 124.323 89.467,124.950 88.138,125.177 87.308 C 125.653 85.571,127.020 83.200,127.546 83.200 C 127.743 83.200,128.411 82.199,129.030 80.976 C 129.649 79.752,130.301 78.661,130.478 78.552 C 130.655 78.442,130.800 77.752,130.800 77.019 C 130.800 67.852,142.410 60.468,150.359 64.579 M250.863 66.648 C 258.539 69.830,262.592 81.522,257.986 87.200 C 257.539 87.750,256.750 89.100,256.231 90.200 C 255.712 91.300,254.817 92.604,254.243 93.097 C 253.670 93.591,253.200 94.251,253.200 94.563 C 253.200 94.876,252.655 95.642,251.988 96.266 C 251.322 96.890,250.240 98.345,249.585 99.500 C 248.929 100.655,248.254 101.600,248.083 101.600 C 247.912 101.600,247.439 102.185,247.030 102.900 C 246.622 103.615,245.948 104.560,245.533 105.000 C 245.118 105.440,244.378 106.366,243.889 107.058 C 240.912 111.270,239.923 112.469,237.418 114.900 C 235.887 116.385,234.428 117.600,234.174 117.600 C 233.920 117.600,232.701 118.140,231.464 118.800 C 222.672 123.492,211.981 116.020,212.009 105.203 C 212.018 101.813,212.284 100.891,214.205 97.600 C 214.526 97.050,214.791 96.312,214.794 95.959 C 214.797 95.607,215.298 94.797,215.907 94.159 C 216.515 93.522,217.448 92.280,217.981 91.400 C 219.150 89.467,220.557 87.619,222.300 85.729 C 223.015 84.954,223.600 84.183,223.600 84.015 C 223.600 83.553,227.408 78.373,228.788 76.957 C 229.455 76.273,230.000 75.448,230.000 75.123 C 230.000 74.797,230.675 73.905,231.500 73.139 C 232.325 72.373,233.296 71.398,233.658 70.973 C 237.914 65.974,244.962 64.202,250.863 66.648 M256.959 125.780 C 261.931 126.731,266.003 129.652,269.248 134.595 C 272.499 139.548,273.278 147.470,273.855 181.449 L 274.127 197.498 272.432 202.747 C 270.832 207.701,267.765 212.800,266.385 212.800 C 266.225 212.800,265.575 213.332,264.939 213.982 C 262.221 216.763,252.042 218.916,249.800 217.185 C 249.580 217.015,248.371 216.578,247.114 216.214 C 242.168 214.781,237.473 209.533,235.380 203.100 L 233.917 198.600 233.587 184.800 C 233.117 165.131,233.140 143.747,233.633 141.600 C 236.222 130.321,246.008 123.684,256.959 125.780 M285.564 234.245 C 286.299 234.660,287.420 235.275,288.054 235.612 C 289.317 236.282,292.301 239.692,292.823 241.061 C 294.876 246.454,293.988 256.432,291.189 259.411 C 288.732 262.027,289.878 264.791,294.246 266.784 C 295.591 267.398,296.822 268.113,296.982 268.372 C 297.143 268.631,298.202 269.259,299.337 269.767 C 300.472 270.276,301.836 271.166,302.370 271.746 C 302.903 272.326,303.533 272.804,303.770 272.809 C 304.006 272.814,304.650 273.183,305.200 273.629 C 305.750 274.075,306.844 274.864,307.632 275.382 C 311.307 277.800,320.800 286.277,320.800 287.140 C 320.800 287.389,321.421 287.999,322.181 288.496 C 322.940 288.993,323.729 289.760,323.935 290.200 C 324.140 290.640,324.690 291.450,325.156 292.000 C 327.764 295.075,329.716 297.820,330.087 298.935 C 330.319 299.631,330.912 300.650,331.405 301.200 C 331.898 301.750,332.671 303.190,333.123 304.400 C 333.574 305.610,334.295 307.320,334.724 308.200 C 337.454 313.794,337.224 333.600,334.430 333.600 C 334.275 333.600,333.742 334.577,333.247 335.771 C 332.752 336.965,331.901 338.235,331.356 338.592 C 330.810 338.949,330.200 339.673,330.000 340.200 C 329.800 340.727,329.133 341.475,328.518 341.862 C 327.903 342.248,326.810 343.067,326.089 343.680 C 325.368 344.293,324.108 345.157,323.289 345.599 C 322.470 346.042,321.326 346.782,320.747 347.245 C 320.168 347.707,318.837 348.246,317.790 348.441 C 316.742 348.637,314.966 349.247,313.842 349.797 C 308.133 352.590,288.764 352.228,284.000 349.240 C 283.670 349.033,282.152 348.578,280.626 348.229 C 279.101 347.881,277.410 347.281,276.870 346.898 C 275.465 345.900,275.204 345.762,273.200 344.968 C 272.210 344.575,270.950 343.857,270.400 343.372 C 269.850 342.887,268.999 342.369,268.509 342.221 C 268.019 342.073,266.849 341.307,265.909 340.518 C 264.969 339.730,263.714 338.879,263.119 338.627 C 262.524 338.374,261.624 337.777,261.119 337.300 C 258.158 334.501,256.959 333.496,255.967 332.983 C 255.356 332.667,254.748 332.067,254.616 331.649 C 254.483 331.231,253.660 330.417,252.787 329.839 C 251.914 329.261,251.200 328.531,251.200 328.217 C 251.200 327.902,250.668 327.331,250.017 326.946 C 249.366 326.562,248.643 325.787,248.409 325.224 C 248.175 324.661,247.444 323.892,246.785 323.515 C 246.125 323.138,245.470 322.508,245.329 322.115 C 245.188 321.722,244.516 320.834,243.836 320.142 C 243.156 319.450,242.009 318.100,241.287 317.142 C 240.565 316.184,239.348 314.590,238.583 313.600 C 237.818 312.610,236.829 311.042,236.385 310.116 C 235.388 308.039,234.133 307.705,229.771 308.353 C 228.119 308.599,226.100 308.802,225.284 308.805 C 224.468 308.808,222.630 309.197,221.200 309.669 C 217.306 310.956,207.028 310.997,204.400 309.736 C 203.410 309.261,202.043 308.666,201.363 308.414 C 200.061 307.931,196.693 304.751,195.783 303.145 C 191.190 295.037,195.504 284.418,204.286 282.216 C 205.779 281.842,208.102 281.199,209.448 280.787 C 210.795 280.376,214.136 279.847,216.874 279.611 C 223.619 279.030,226.041 278.599,227.902 277.650 C 228.769 277.207,230.721 276.562,232.239 276.214 C 233.758 275.867,236.260 274.981,237.800 274.245 C 239.340 273.510,241.095 272.790,241.700 272.646 C 242.305 272.502,242.800 272.210,242.800 271.997 C 242.800 271.486,245.512 269.799,246.873 269.463 C 247.464 269.317,248.056 268.855,248.189 268.435 C 248.322 268.015,248.919 267.359,249.516 266.977 C 250.112 266.596,251.099 265.690,251.709 264.966 C 252.319 264.241,253.139 263.546,253.530 263.422 C 253.921 263.298,254.468 262.568,254.746 261.799 C 255.024 261.030,255.599 260.214,256.024 259.987 C 256.450 259.759,257.178 258.814,257.643 257.887 C 258.108 256.959,258.896 255.750,259.396 255.200 C 259.895 254.650,260.521 253.520,260.786 252.690 C 261.052 251.859,261.695 250.673,262.216 250.054 C 262.737 249.435,263.555 247.864,264.033 246.564 C 265.116 243.621,266.605 241.090,268.316 239.280 C 269.039 238.515,269.791 237.591,269.985 237.228 C 270.179 236.865,270.847 236.312,271.469 235.999 C 272.091 235.685,273.116 235.080,273.746 234.655 C 276.184 233.007,282.955 232.772,285.564 234.245 " stroke="none" fill="#fb6b2c" fill-rule="evenodd"></path><path id="path3" d="M130.000 79.213 C 129.670 79.756,129.057 80.875,128.637 81.700 C 128.217 82.525,127.720 83.200,127.531 83.200 C 127.018 83.200,125.647 85.593,125.177 87.308 C 124.950 88.138,124.323 89.467,123.783 90.263 C 123.243 91.059,122.604 92.450,122.364 93.355 C 122.123 94.260,121.507 95.555,120.994 96.233 C 120.481 96.911,119.757 98.531,119.386 99.833 C 119.015 101.135,118.300 102.650,117.796 103.200 C 117.293 103.750,116.556 105.280,116.158 106.600 C 115.760 107.920,115.052 109.473,114.584 110.052 C 114.115 110.631,113.423 112.206,113.045 113.552 C 112.668 114.898,112.227 116.000,112.066 116.000 C 111.515 116.000,110.413 118.299,109.967 120.379 C 109.722 121.521,109.286 122.546,108.998 122.656 C 108.449 122.867,106.800 126.349,106.800 127.296 C 106.800 127.598,106.344 128.462,105.787 129.217 C 105.230 129.972,104.519 131.451,104.206 132.504 C 103.893 133.557,102.999 135.453,102.219 136.717 C 101.438 137.981,100.800 139.215,100.800 139.459 C 100.800 141.001,100.828 141.000,63.437 141.000 C 23.499 141.000,27.747 140.732,23.200 143.541 C 17.478 147.076,18.406 157.391,24.800 161.315 C 25.570 161.788,26.533 162.480,26.940 162.854 C 27.346 163.227,28.146 163.650,28.718 163.794 C 29.289 163.937,30.336 164.563,31.044 165.185 C 31.752 165.807,33.022 166.536,33.866 166.806 C 34.710 167.076,35.850 167.705,36.400 168.204 C 36.950 168.704,38.210 169.518,39.200 170.014 C 40.190 170.510,41.557 171.339,42.238 171.858 C 42.919 172.376,43.647 172.800,43.857 172.800 C 44.066 172.800,45.471 173.610,46.978 174.600 C 48.485 175.590,50.021 176.400,50.390 176.400 C 50.759 176.400,51.470 176.835,51.970 177.368 C 52.470 177.900,53.792 178.728,54.908 179.208 C 56.024 179.689,57.222 180.394,57.569 180.776 C 57.916 181.157,59.009 181.814,59.997 182.235 C 60.985 182.656,62.128 183.333,62.536 183.739 C 62.945 184.146,64.213 184.892,65.355 185.397 C 66.498 185.902,67.655 186.585,67.929 186.914 C 68.202 187.243,69.354 187.912,70.490 188.401 C 71.626 188.889,72.893 189.719,73.306 190.244 C 73.720 190.770,74.393 191.200,74.802 191.200 C 76.278 191.200,76.271 194.559,74.792 196.200 C 74.396 196.640,73.693 198.160,73.232 199.579 C 72.770 200.997,72.063 202.527,71.661 202.979 C 70.897 203.836,70.245 205.381,69.807 207.373 C 69.664 208.018,69.111 209.065,68.577 209.700 C 68.044 210.334,67.313 211.876,66.955 213.127 C 66.596 214.377,65.979 215.708,65.584 216.085 C 65.189 216.462,64.468 218.030,63.982 219.569 C 63.496 221.108,62.769 222.666,62.367 223.030 C 61.964 223.395,61.244 224.887,60.767 226.346 C 60.290 227.806,59.577 229.360,59.184 229.800 C 58.791 230.240,58.169 231.641,57.802 232.914 C 57.435 234.187,56.726 235.638,56.226 236.138 C 55.726 236.638,55.091 238.027,54.815 239.224 C 54.539 240.421,53.893 242.030,53.379 242.800 C 49.151 249.136,51.538 257.653,58.200 260.006 C 67.745 263.377,74.086 263.644,77.332 260.814 C 78.029 260.206,79.001 259.583,79.491 259.430 C 79.981 259.277,81.109 258.544,81.998 257.802 C 82.886 257.059,84.329 256.136,85.204 255.750 C 86.079 255.364,86.892 254.741,87.011 254.364 C 87.131 253.988,87.686 253.565,88.246 253.424 C 88.805 253.284,90.165 252.456,91.267 251.585 C 92.370 250.713,93.540 250.000,93.867 250.000 C 94.194 250.000,95.033 249.418,95.731 248.706 C 96.429 247.994,97.630 247.116,98.400 246.754 C 99.170 246.392,100.164 245.746,100.609 245.317 C 101.054 244.889,102.164 244.209,103.075 243.807 C 103.986 243.405,104.954 242.659,105.227 242.149 C 105.500 241.639,106.371 241.015,107.162 240.763 C 107.953 240.511,109.140 239.796,109.800 239.173 C 110.460 238.550,111.630 237.777,112.400 237.455 C 113.170 237.133,114.204 236.404,114.697 235.835 C 115.191 235.266,115.850 234.800,116.161 234.800 C 116.473 234.800,117.616 234.098,118.702 233.240 C 119.787 232.382,121.424 231.298,122.338 230.832 C 123.252 230.365,124.000 229.810,124.000 229.597 C 124.000 229.385,124.651 228.939,125.446 228.607 C 126.241 228.274,127.507 227.462,128.260 226.801 C 130.133 225.157,133.738 225.044,135.186 226.585 C 135.694 227.126,137.076 227.969,138.255 228.458 C 139.435 228.947,140.400 229.504,140.400 229.696 C 140.400 229.887,141.433 230.517,142.695 231.095 C 143.957 231.673,145.352 232.495,145.795 232.922 C 146.238 233.349,147.507 234.107,148.616 234.607 C 149.725 235.107,150.849 235.777,151.114 236.096 C 151.379 236.415,152.361 237.007,153.298 237.411 C 154.234 237.816,155.453 238.556,156.006 239.058 C 156.559 239.559,157.794 240.245,158.751 240.583 C 159.707 240.920,161.084 241.718,161.811 242.356 C 162.537 242.994,163.777 243.728,164.566 243.989 C 165.355 244.249,166.000 244.614,166.000 244.800 C 166.000 244.986,167.085 245.680,168.411 246.342 C 169.736 247.005,171.352 247.993,172.000 248.539 C 172.649 249.085,173.859 249.752,174.690 250.023 C 175.520 250.293,176.770 251.010,177.466 251.615 C 178.162 252.220,179.377 252.928,180.166 253.189 C 180.955 253.449,181.600 253.836,181.600 254.048 C 181.600 254.260,182.701 254.955,184.047 255.591 C 185.392 256.227,186.877 257.099,187.347 257.527 C 188.356 258.448,190.543 259.600,191.283 259.600 C 191.571 259.600,192.652 260.050,193.685 260.600 C 198.004 262.899,204.694 260.459,206.844 255.800 C 208.278 252.694,207.611 244.318,205.667 241.025 C 205.227 240.279,204.485 238.258,204.019 236.534 C 203.552 234.810,202.802 232.892,202.351 232.271 C 201.887 231.629,201.198 229.468,200.759 227.271 C 200.323 225.087,199.634 222.919,199.179 222.297 C 198.735 221.691,198.181 220.164,197.949 218.905 C 197.466 216.293,196.696 214.599,195.843 214.272 C 195.504 214.142,195.137 213.234,194.973 212.123 C 194.605 209.613,194.182 208.532,193.039 207.173 C 192.522 206.559,191.980 205.369,191.834 204.529 C 191.500 202.611,190.855 200.890,189.988 199.600 C 189.618 199.050,188.999 197.290,188.612 195.688 C 188.225 194.086,187.479 192.143,186.954 191.370 C 186.429 190.597,186.000 189.709,186.000 189.397 C 186.000 188.719,189.186 185.624,189.899 185.610 C 190.173 185.605,191.073 185.001,191.899 184.268 C 192.724 183.535,194.255 182.529,195.300 182.032 C 196.345 181.535,197.335 180.898,197.500 180.616 C 197.665 180.335,198.559 179.720,199.487 179.251 C 200.414 178.781,201.351 178.066,201.568 177.660 C 201.785 177.255,202.756 176.620,203.726 176.250 C 204.695 175.879,205.965 175.042,206.548 174.388 C 207.130 173.735,207.869 173.200,208.189 173.200 C 208.510 173.200,209.363 172.684,210.086 172.054 C 210.809 171.423,212.120 170.542,213.000 170.095 C 213.880 169.648,215.183 168.724,215.896 168.041 C 216.609 167.359,217.523 166.800,217.927 166.800 C 218.330 166.800,219.097 166.332,219.630 165.761 C 220.164 165.190,221.320 164.354,222.200 163.903 C 229.116 160.362,231.521 151.398,226.939 146.239 C 223.298 142.140,222.736 142.062,195.063 141.795 C 169.706 141.551,167.742 141.397,167.355 139.634 C 166.873 137.438,166.283 135.748,165.548 134.464 C 165.128 133.730,164.419 131.765,163.973 130.098 C 163.526 128.432,162.786 126.542,162.328 125.899 C 161.828 125.196,161.477 124.047,161.448 123.017 C 161.402 121.374,161.328 121.277,159.654 120.654 C 157.666 119.914,157.713 119.628,159.168 123.600 C 159.611 124.810,159.980 126.270,159.987 126.844 C 159.994 127.418,160.411 128.498,160.914 129.244 C 161.417 129.990,162.242 132.040,162.749 133.800 C 163.256 135.560,163.894 137.270,164.167 137.600 C 164.441 137.930,164.969 139.028,165.342 140.040 C 166.081 142.045,167.230 143.331,168.822 143.934 C 169.410 144.157,180.355 144.435,194.622 144.591 C 223.280 144.903,222.481 144.811,224.951 148.068 C 228.566 152.836,226.313 159.360,219.922 162.630 C 218.890 163.158,217.900 163.838,217.722 164.141 C 217.545 164.444,216.795 165.001,216.055 165.380 C 214.467 166.191,209.880 169.297,208.269 170.650 C 207.647 171.172,206.893 171.600,206.594 171.600 C 206.294 171.600,205.217 172.320,204.200 173.200 C 203.183 174.080,202.183 174.800,201.977 174.800 C 201.771 174.800,200.927 175.406,200.101 176.147 C 199.276 176.888,198.203 177.617,197.718 177.768 C 197.233 177.919,195.984 178.746,194.944 179.606 C 193.904 180.465,192.546 181.280,191.927 181.416 C 191.308 181.552,190.563 182.003,190.272 182.418 C 189.982 182.833,188.769 183.682,187.578 184.304 C 183.867 186.243,183.173 190.428,185.804 195.010 C 186.312 195.895,187.002 197.667,187.336 198.948 C 187.670 200.228,188.381 201.934,188.915 202.738 C 189.450 203.542,190.106 205.237,190.373 206.505 C 190.641 207.772,191.277 209.305,191.786 209.911 C 192.296 210.517,193.001 211.980,193.352 213.163 C 193.703 214.346,194.434 216.071,194.977 216.997 C 195.519 217.922,196.264 220.011,196.631 221.640 C 196.998 223.268,197.658 225.309,198.096 226.176 C 198.535 227.042,199.218 229.334,199.614 231.268 C 200.010 233.202,200.688 235.283,201.120 235.892 C 201.553 236.501,202.227 238.170,202.619 239.600 C 203.011 241.030,203.785 243.081,204.338 244.157 C 207.220 249.765,205.157 256.612,200.164 258.010 C 196.849 258.938,192.202 258.179,190.200 256.382 C 189.760 255.987,188.590 255.357,187.600 254.981 C 186.610 254.606,185.517 253.980,185.170 253.591 C 184.824 253.203,183.564 252.392,182.370 251.790 C 181.177 251.188,180.110 250.562,180.000 250.399 C 179.890 250.236,178.720 249.533,177.400 248.837 C 176.080 248.140,174.370 247.114,173.600 246.556 C 172.830 245.998,171.717 245.445,171.126 245.326 C 170.535 245.207,169.958 244.867,169.844 244.569 C 169.729 244.272,168.413 243.378,166.918 242.584 C 162.201 240.079,159.708 238.622,158.927 237.915 C 158.511 237.539,157.330 236.859,156.302 236.404 C 155.274 235.949,154.322 235.398,154.187 235.179 C 154.051 234.959,152.707 234.159,151.200 233.400 C 149.693 232.641,148.336 231.821,148.186 231.577 C 148.035 231.333,147.098 230.785,146.104 230.359 C 145.110 229.933,143.781 229.150,143.150 228.620 C 142.520 228.089,141.598 227.532,141.102 227.381 C 140.606 227.230,139.660 226.704,139.000 226.211 C 134.292 222.697,128.328 222.495,125.632 225.758 C 125.319 226.137,124.509 226.680,123.832 226.965 C 123.154 227.251,121.818 228.140,120.862 228.942 C 119.906 229.744,118.874 230.400,118.569 230.400 C 118.264 230.400,117.516 230.852,116.907 231.405 C 115.749 232.456,113.033 234.303,110.151 236.000 C 109.216 236.551,107.935 237.496,107.304 238.100 C 106.673 238.705,106.022 239.200,105.857 239.200 C 105.309 239.200,98.608 243.747,98.077 244.479 C 97.790 244.876,97.227 245.200,96.825 245.200 C 96.424 245.200,95.053 246.010,93.778 247.000 C 92.503 247.990,91.329 248.800,91.168 248.800 C 91.007 248.800,90.122 249.430,89.200 250.200 C 88.278 250.970,87.282 251.600,86.986 251.600 C 86.691 251.600,85.633 252.306,84.635 253.170 C 83.638 254.033,82.412 254.863,81.911 255.015 C 81.410 255.166,80.547 255.713,79.994 256.230 C 79.440 256.747,77.477 257.918,75.631 258.833 L 72.274 260.495 69.637 260.073 C 66.448 259.561,60.426 257.526,58.140 256.186 C 55.087 254.397,52.734 248.646,54.374 246.980 C 54.580 246.771,55.107 245.300,55.546 243.711 C 55.984 242.121,56.784 240.231,57.322 239.511 C 57.860 238.790,58.523 237.480,58.794 236.600 C 59.065 235.720,59.780 234.100,60.384 233.000 C 60.988 231.900,61.709 230.280,61.987 229.400 C 62.264 228.520,62.993 226.990,63.605 226.000 C 64.218 225.010,64.837 223.634,64.982 222.943 C 65.126 222.252,65.737 220.902,66.339 219.943 C 66.941 218.984,67.767 217.300,68.174 216.200 C 68.582 215.100,69.339 213.465,69.857 212.566 C 70.375 211.668,71.058 210.071,71.374 209.018 C 71.691 207.966,72.307 206.721,72.743 206.252 C 73.178 205.783,73.921 204.197,74.393 202.728 C 74.865 201.258,75.509 199.842,75.823 199.581 C 76.363 199.132,78.400 193.340,78.400 192.251 C 78.400 191.174,75.505 188.414,73.289 187.379 C 72.030 186.791,70.638 185.979,70.195 185.574 C 69.752 185.170,68.561 184.472,67.548 184.024 C 66.535 183.576,65.480 182.938,65.204 182.605 C 64.929 182.273,63.645 181.527,62.352 180.946 C 61.058 180.366,60.000 179.725,60.000 179.523 C 60.000 179.321,59.027 178.725,57.837 178.199 C 56.647 177.673,55.545 177.035,55.389 176.782 C 55.232 176.528,54.024 175.810,52.705 175.186 C 51.386 174.562,49.923 173.692,49.453 173.253 C 48.984 172.813,47.765 172.097,46.744 171.660 C 45.723 171.223,44.755 170.651,44.593 170.388 C 44.430 170.126,43.347 169.490,42.186 168.977 C 41.024 168.463,39.943 167.831,39.782 167.572 C 39.622 167.313,38.390 166.601,37.045 165.991 C 35.699 165.381,34.261 164.510,33.850 164.055 C 33.439 163.601,32.269 162.923,31.251 162.549 C 30.233 162.175,28.950 161.469,28.400 160.980 C 27.850 160.491,26.815 159.796,26.100 159.435 C 25.385 159.075,24.800 158.610,24.800 158.404 C 24.800 158.197,24.274 157.489,23.631 156.832 C 20.125 153.245,21.893 147.133,27.200 144.493 L 30.200 143.000 38.000 143.105 C 42.290 143.163,57.338 143.383,71.440 143.594 C 85.707 143.808,97.594 143.827,98.240 143.637 C 101.661 142.628,103.868 140.181,105.192 135.927 C 105.605 134.598,106.294 133.126,106.723 132.656 C 107.151 132.185,107.724 131.080,107.995 130.200 C 108.267 129.320,108.931 127.826,109.473 126.881 C 110.014 125.935,110.779 124.225,111.172 123.081 C 111.566 121.936,112.361 120.304,112.938 119.453 C 113.903 118.032,114.792 115.677,114.798 114.531 C 114.799 114.273,115.224 113.553,115.742 112.931 C 116.260 112.309,116.910 111.080,117.186 110.200 C 117.463 109.320,118.156 107.790,118.727 106.800 C 119.297 105.810,120.157 103.885,120.636 102.522 C 121.115 101.159,121.877 99.574,122.329 98.999 C 122.781 98.425,123.457 97.020,123.832 95.877 C 124.206 94.735,124.822 93.350,125.200 92.800 C 125.578 92.250,126.203 90.839,126.588 89.663 C 126.973 88.488,127.764 86.958,128.344 86.263 C 131.095 82.972,131.321 82.450,130.948 80.264 C 130.602 78.240,130.596 78.233,130.000 79.213 " stroke="none" fill="#cc4e65" fill-rule="evenodd"></path><path id="path4" d="M140.780 64.118 C 133.825 66.096,129.939 72.805,131.050 80.912 C 131.374 83.278,132.131 83.031,133.031 80.265 C 135.917 71.392,140.294 67.631,147.152 68.132 C 152.049 68.490,152.491 68.682,155.731 71.850 C 157.967 74.038,159.478 75.911,159.965 77.100 C 160.257 77.815,160.642 78.400,160.820 78.400 C 160.997 78.400,161.798 79.480,162.600 80.800 C 163.402 82.120,164.196 83.200,164.365 83.200 C 164.534 83.200,165.163 84.100,165.761 85.200 C 166.360 86.300,167.002 87.200,167.187 87.200 C 167.372 87.200,168.020 88.046,168.626 89.080 C 169.778 91.046,171.666 93.737,173.365 95.835 C 173.915 96.514,174.665 97.954,175.030 99.035 C 175.396 100.116,176.033 101.478,176.447 102.062 C 177.818 103.995,177.503 108.090,175.761 111.000 C 172.329 116.732,167.964 118.821,161.686 117.739 C 157.946 117.094,156.060 118.238,158.100 119.912 C 164.106 124.842,176.344 121.268,179.197 113.750 C 180.981 109.049,179.595 98.000,177.222 98.000 C 177.024 98.000,176.649 97.355,176.389 96.566 C 176.128 95.777,175.423 94.562,174.821 93.866 C 174.218 93.170,173.255 91.790,172.680 90.800 C 172.104 89.810,171.266 88.773,170.817 88.497 C 170.367 88.220,170.000 87.669,170.000 87.272 C 170.000 86.497,168.617 84.800,167.984 84.800 C 167.773 84.800,167.600 84.544,167.600 84.231 C 167.600 83.917,167.009 82.882,166.287 81.931 C 165.565 80.979,164.538 79.480,164.004 78.600 C 163.471 77.720,162.532 76.523,161.917 75.940 C 161.303 75.356,160.800 74.658,160.800 74.388 C 160.800 73.884,159.091 71.775,156.484 69.063 C 154.978 67.497,152.516 65.694,150.359 64.579 C 148.723 63.733,143.087 63.462,140.780 64.118 M240.899 66.394 C 237.834 67.473,235.242 69.112,233.658 70.973 C 233.296 71.398,232.325 72.373,231.500 73.139 C 230.675 73.905,230.000 74.797,230.000 75.123 C 230.000 75.448,229.455 76.273,228.788 76.957 C 227.408 78.373,223.600 83.553,223.600 84.015 C 223.600 84.183,223.015 84.954,222.300 85.729 C 220.557 87.619,219.150 89.467,217.981 91.400 C 217.448 92.280,216.515 93.522,215.907 94.159 C 215.298 94.797,214.797 95.607,214.794 95.959 C 214.791 96.312,214.526 97.050,214.205 97.600 C 209.588 105.509,211.937 114.437,219.656 118.323 C 224.109 120.565,227.871 120.717,231.464 118.800 C 232.701 118.140,233.920 117.600,234.174 117.600 C 234.428 117.600,235.887 116.385,237.418 114.900 C 239.923 112.469,240.912 111.270,243.889 107.058 C 244.378 106.366,245.118 105.440,245.533 105.000 C 245.948 104.560,246.622 103.615,247.030 102.900 C 247.439 102.185,247.912 101.600,248.083 101.600 C 248.254 101.600,248.929 100.655,249.585 99.500 C 250.240 98.345,251.322 96.890,251.988 96.266 C 252.655 95.642,253.200 94.876,253.200 94.563 C 253.200 94.251,253.670 93.591,254.243 93.097 C 254.817 92.604,255.712 91.300,256.231 90.200 C 256.750 89.100,257.539 87.750,257.986 87.200 C 259.786 84.981,260.032 77.397,258.423 73.759 C 255.417 66.964,248.062 63.873,240.899 66.394 M248.407 70.682 C 254.111 73.420,258.240 81.652,255.588 85.000 C 255.414 85.220,255.145 86.075,254.991 86.901 C 254.837 87.727,254.128 89.167,253.416 90.101 C 252.703 91.035,251.819 92.385,251.450 93.100 C 251.081 93.815,250.637 94.400,250.463 94.400 C 250.290 94.400,249.746 95.115,249.255 95.988 C 248.764 96.862,247.876 98.085,247.281 98.706 C 246.686 99.327,245.264 101.177,244.121 102.817 C 242.978 104.458,241.538 106.496,240.921 107.346 C 233.859 117.084,225.529 118.653,218.726 111.528 C 215.244 107.880,214.441 98.413,217.429 96.228 C 217.766 95.982,218.437 95.134,218.921 94.343 C 220.175 92.293,222.000 89.761,223.447 88.063 C 224.133 87.258,224.822 86.188,224.979 85.684 C 225.136 85.180,225.925 84.085,226.732 83.252 C 227.539 82.419,229.152 80.401,230.316 78.769 C 231.480 77.136,233.055 75.136,233.816 74.323 C 234.577 73.511,235.200 72.671,235.200 72.455 C 235.200 72.240,235.728 71.948,236.372 71.806 C 237.017 71.664,237.759 71.290,238.021 70.974 C 238.283 70.658,238.791 70.394,239.149 70.387 C 239.507 70.380,240.160 70.096,240.600 69.756 C 241.849 68.790,245.323 69.202,248.407 70.682 M248.200 125.934 C 241.502 127.347,235.398 133.911,233.633 141.600 C 233.140 143.747,233.117 165.131,233.587 184.800 L 233.917 198.600 235.380 203.100 C 237.473 209.533,242.168 214.781,247.114 216.214 C 248.371 216.578,249.580 217.015,249.800 217.185 C 252.042 218.916,262.221 216.763,264.939 213.982 C 265.575 213.332,266.225 212.800,266.385 212.800 C 267.765 212.800,270.832 207.701,272.432 202.747 L 274.127 197.498 273.855 181.449 C 273.278 147.470,272.499 139.548,269.248 134.595 C 264.225 126.943,257.175 124.042,248.200 125.934 M258.027 131.844 C 264.823 133.859,269.419 139.006,270.005 145.258 C 270.729 152.973,270.934 194.633,270.270 198.890 C 268.917 207.553,258.308 213.938,249.760 211.233 C 249.122 211.031,248.129 210.764,247.553 210.639 C 243.966 209.860,238.767 204.584,237.861 200.805 C 236.487 195.074,235.692 181.891,235.327 158.800 L 235.128 146.200 236.891 142.135 C 240.749 133.244,249.075 129.190,258.027 131.844 M276.146 233.556 C 275.456 233.734,274.376 234.229,273.746 234.655 C 273.116 235.080,272.091 235.685,271.469 235.999 C 270.847 236.312,270.179 236.865,269.985 237.228 C 269.791 237.591,269.039 238.515,268.316 239.280 C 266.605 241.090,265.116 243.621,264.033 246.564 C 263.555 247.864,262.737 249.435,262.216 250.054 C 261.695 250.673,261.052 251.859,260.786 252.690 C 260.521 253.520,259.895 254.650,259.396 255.200 C 258.896 255.750,258.108 256.959,257.643 257.887 C 257.178 258.814,256.450 259.759,256.024 259.987 C 255.599 260.214,255.024 261.030,254.746 261.799 C 254.468 262.568,253.921 263.298,253.530 263.422 C 253.139 263.546,252.319 264.241,251.709 264.966 C 251.099 265.690,250.112 266.596,249.516 266.977 C 248.919 267.359,248.322 268.015,248.189 268.435 C 248.056 268.855,247.464 269.317,246.873 269.463 C 245.512 269.799,242.800 271.486,242.800 271.997 C 242.800 272.210,242.305 272.502,241.700 272.646 C 241.095 272.790,239.340 273.510,237.800 274.245 C 236.260 274.981,233.758 275.867,232.239 276.214 C 230.721 276.562,228.769 277.207,227.902 277.650 C 226.041 278.599,223.619 279.030,216.874 279.611 C 214.136 279.847,210.795 280.376,209.448 280.787 C 208.102 281.199,205.779 281.842,204.286 282.216 C 193.787 284.849,190.413 298.094,198.222 306.022 C 199.269 307.085,200.682 308.161,201.363 308.414 C 202.043 308.666,203.410 309.261,204.400 309.736 C 207.028 310.997,217.306 310.956,221.200 309.669 C 222.630 309.197,224.468 308.808,225.284 308.805 C 226.100 308.802,228.119 308.599,229.771 308.353 C 234.133 307.705,235.388 308.039,236.385 310.116 C 236.829 311.042,237.818 312.610,238.583 313.600 C 239.348 314.590,240.565 316.184,241.287 317.142 C 242.009 318.100,243.156 319.450,243.836 320.142 C 244.516 320.834,245.188 321.722,245.329 322.115 C 245.470 322.508,246.125 323.138,246.785 323.515 C 247.444 323.892,248.175 324.661,248.409 325.224 C 248.643 325.787,249.366 326.562,250.017 326.946 C 250.668 327.331,251.200 327.902,251.200 328.217 C 251.200 328.531,251.914 329.261,252.787 329.839 C 253.660 330.417,254.483 331.231,254.616 331.649 C 254.748 332.067,255.356 332.667,255.967 332.983 C 256.959 333.496,258.158 334.501,261.119 337.300 C 261.624 337.777,262.524 338.374,263.119 338.627 C 263.714 338.879,264.969 339.730,265.909 340.518 C 266.849 341.307,268.019 342.073,268.509 342.221 C 268.999 342.369,269.850 342.887,270.400 343.372 C 270.950 343.857,272.210 344.575,273.200 344.968 C 275.204 345.762,275.465 345.900,276.870 346.898 C 277.410 347.281,279.101 347.881,280.626 348.229 C 282.152 348.578,283.670 349.033,284.000 349.240 C 288.764 352.228,308.133 352.590,313.842 349.797 C 314.966 349.247,316.742 348.637,317.790 348.441 C 318.837 348.246,320.168 347.707,320.747 347.245 C 321.326 346.782,322.470 346.042,323.289 345.599 C 324.108 345.157,325.368 344.293,326.089 343.680 C 326.810 343.067,327.903 342.248,328.518 341.862 C 329.133 341.475,329.800 340.727,330.000 340.200 C 330.200 339.673,330.810 338.949,331.356 338.592 C 331.901 338.235,332.752 336.965,333.247 335.771 C 333.742 334.577,334.275 333.600,334.430 333.600 C 337.224 333.600,337.454 313.794,334.724 308.200 C 334.295 307.320,333.574 305.610,333.123 304.400 C 332.671 303.190,331.898 301.750,331.405 301.200 C 330.912 300.650,330.319 299.631,330.087 298.935 C 329.716 297.820,327.764 295.075,325.156 292.000 C 324.690 291.450,324.140 290.640,323.935 290.200 C 323.729 289.760,322.940 288.993,322.181 288.496 C 321.421 287.999,320.800 287.389,320.800 287.140 C 320.800 286.277,311.307 277.800,307.632 275.382 C 306.844 274.864,305.750 274.075,305.200 273.629 C 304.650 273.183,304.006 272.814,303.770 272.809 C 303.533 272.804,302.903 272.326,302.370 271.746 C 301.836 271.166,300.472 270.276,299.337 269.767 C 298.202 269.259,297.143 268.631,296.982 268.372 C 296.822 268.113,295.591 267.398,294.246 266.784 C 289.878 264.791,288.732 262.027,291.189 259.411 C 293.988 256.432,294.876 246.454,292.823 241.061 C 292.301 239.692,289.317 236.282,288.054 235.612 C 287.420 235.275,286.299 234.660,285.564 234.245 C 284.075 233.404,278.351 232.985,276.146 233.556 M281.645 238.004 C 282.830 238.226,284.250 238.767,284.800 239.207 C 285.350 239.647,286.177 240.171,286.639 240.370 C 290.091 241.866,292.983 252.095,290.695 254.720 C 290.369 255.094,289.789 256.390,289.406 257.600 C 289.023 258.810,288.268 260.573,287.727 261.519 C 285.932 264.658,286.990 266.674,291.146 268.033 C 292.606 268.510,294.160 269.221,294.600 269.612 C 295.040 270.003,296.030 270.584,296.800 270.904 C 297.570 271.223,298.982 272.140,299.938 272.942 C 300.894 273.744,301.912 274.400,302.200 274.400 C 302.488 274.400,303.441 274.985,304.318 275.700 C 305.194 276.415,306.955 277.810,308.232 278.800 C 315.579 284.498,321.707 290.660,325.000 295.663 C 325.440 296.331,326.360 297.535,327.045 298.339 C 327.729 299.143,328.681 300.693,329.160 301.785 C 329.639 302.877,330.306 304.076,330.644 304.448 C 330.981 304.821,331.530 306.177,331.865 307.463 C 332.200 308.748,332.953 310.790,333.537 312.000 C 334.560 314.116,334.600 314.458,334.600 321.000 L 334.600 327.800 332.833 331.400 C 331.035 335.064,329.462 337.405,327.591 339.200 C 325.284 341.414,323.285 343.030,322.173 343.581 C 321.528 343.900,320.010 344.750,318.800 345.470 C 317.575 346.198,315.359 347.039,313.800 347.367 C 312.260 347.691,310.190 348.265,309.200 348.643 C 307.864 349.152,305.748 349.374,301.000 349.502 C 294.377 349.681,293.587 349.587,286.600 347.791 C 284.400 347.226,282.228 346.686,281.774 346.592 C 281.319 346.499,280.537 346.066,280.035 345.631 C 279.534 345.196,277.984 344.461,276.592 343.997 C 275.200 343.534,273.858 342.911,273.610 342.612 C 273.362 342.313,272.313 341.676,271.280 341.195 C 270.246 340.715,269.014 339.966,268.543 339.531 C 268.071 339.097,267.142 338.439,266.479 338.070 C 265.210 337.366,262.039 334.937,259.488 332.716 C 258.656 331.992,257.642 331.247,257.233 331.059 C 256.825 330.872,256.295 330.287,256.054 329.759 C 255.814 329.232,255.443 328.800,255.231 328.800 C 254.768 328.800,250.000 324.179,250.000 323.731 C 250.000 323.559,249.325 322.743,248.500 321.920 C 246.163 319.585,245.063 318.313,244.252 317.006 C 243.840 316.343,242.715 314.953,241.752 313.917 C 240.788 312.882,240.000 311.784,240.000 311.479 C 240.000 311.174,239.625 310.585,239.167 310.170 C 238.709 309.755,238.070 308.785,237.748 308.014 C 236.402 304.792,234.060 303.950,230.884 305.546 C 228.534 306.727,213.701 308.335,210.035 307.807 C 205.589 307.165,200.400 304.382,200.400 302.638 C 200.400 302.483,200.030 301.544,199.578 300.552 C 197.386 295.741,198.717 290.209,203.032 286.191 C 205.112 284.253,207.216 283.606,213.400 283.001 C 214.940 282.851,217.221 282.386,218.470 281.970 C 219.718 281.553,223.036 280.843,225.844 280.393 C 228.890 279.904,231.442 279.269,232.174 278.817 C 232.848 278.400,234.632 277.749,236.139 277.371 C 237.645 276.993,239.355 276.294,239.939 275.818 C 240.522 275.341,241.752 274.734,242.671 274.469 C 243.590 274.203,245.092 273.359,246.009 272.593 C 246.926 271.827,247.844 271.200,248.049 271.200 C 248.698 271.200,253.625 266.396,257.075 262.400 C 259.092 260.063,262.400 255.037,262.400 254.308 C 262.400 253.995,262.851 253.316,263.402 252.798 C 263.953 252.280,264.710 250.854,265.084 249.628 C 265.459 248.403,266.239 246.842,266.818 246.159 C 267.398 245.476,268.212 244.095,268.628 243.089 C 269.119 241.903,269.810 241.035,270.592 240.621 C 271.257 240.270,272.401 239.600,273.136 239.133 C 275.457 237.658,278.000 237.321,281.645 238.004 " stroke="none" fill="#b94219" fill-rule="evenodd"></path></g></svg>